<mxfile host="app.diagrams.net" modified="2023-12-21T13:19:51.102Z" agent="Mozilla/5.0 (Windows NT 10.0; Win64; x64) AppleWebKit/537.36 (KHTML, like Gecko) Chrome/120.0.0.0 Safari/537.36" etag="8lyZ6bar4HYFOQF0vEj9" version="22.1.11" type="device">
  <diagram name="Страница — 1" id="4nQCyEb2ePeg7xsdgP3C">
    <mxGraphModel dx="794" dy="492" grid="1" gridSize="10" guides="1" tooltips="1" connect="1" arrows="1" fold="1" page="1" pageScale="1" pageWidth="827" pageHeight="1169" math="0" shadow="0">
      <root>
        <mxCell id="0" />
        <mxCell id="1" parent="0" />
        <mxCell id="ehtnHAh_IuBrKoUJwJ0N-1" style="edgeStyle=orthogonalEdgeStyle;rounded=0;orthogonalLoop=1;jettySize=auto;html=1;exitX=0.5;exitY=1;exitDx=0;exitDy=0;entryX=0.5;entryY=0;entryDx=0;entryDy=0;" parent="1" source="ehtnHAh_IuBrKoUJwJ0N-2" target="ehtnHAh_IuBrKoUJwJ0N-4" edge="1">
          <mxGeometry relative="1" as="geometry" />
        </mxCell>
        <mxCell id="ehtnHAh_IuBrKoUJwJ0N-2" value="начало&lt;br&gt;aannaia" style="rounded=1;whiteSpace=wrap;html=1;arcSize=50;" parent="1" vertex="1">
          <mxGeometry x="20" y="20" width="110" height="50" as="geometry" />
        </mxCell>
        <mxCell id="ehtnHAh_IuBrKoUJwJ0N-3" style="edgeStyle=orthogonalEdgeStyle;rounded=0;orthogonalLoop=1;jettySize=auto;html=1;exitX=0.5;exitY=1;exitDx=0;exitDy=0;entryX=0.5;entryY=0;entryDx=0;entryDy=0;" parent="1" source="ehtnHAh_IuBrKoUJwJ0N-4" target="ehtnHAh_IuBrKoUJwJ0N-54" edge="1">
          <mxGeometry relative="1" as="geometry">
            <mxPoint x="70" y="180" as="targetPoint" />
          </mxGeometry>
        </mxCell>
        <mxCell id="ehtnHAh_IuBrKoUJwJ0N-4" value="a =&amp;nbsp;aannaia" style="rounded=0;whiteSpace=wrap;html=1;" parent="1" vertex="1">
          <mxGeometry x="20" y="90" width="110" height="50" as="geometry" />
        </mxCell>
        <mxCell id="ehtnHAh_IuBrKoUJwJ0N-56" style="edgeStyle=orthogonalEdgeStyle;rounded=0;orthogonalLoop=1;jettySize=auto;html=1;exitX=0.5;exitY=1;exitDx=0;exitDy=0;entryX=0.5;entryY=0;entryDx=0;entryDy=0;" parent="1" source="ehtnHAh_IuBrKoUJwJ0N-54" target="ehtnHAh_IuBrKoUJwJ0N-55" edge="1">
          <mxGeometry relative="1" as="geometry">
            <mxPoint x="70" y="220" as="targetPoint" />
          </mxGeometry>
        </mxCell>
        <mxCell id="ehtnHAh_IuBrKoUJwJ0N-54" value="Ввод:&lt;br&gt;a,b,i" style="shape=parallelogram;perimeter=parallelogramPerimeter;whiteSpace=wrap;html=1;fixedSize=1;" parent="1" vertex="1">
          <mxGeometry x="20" y="160" width="110" height="50" as="geometry" />
        </mxCell>
        <mxCell id="ehtnHAh_IuBrKoUJwJ0N-61" style="edgeStyle=orthogonalEdgeStyle;rounded=0;orthogonalLoop=1;jettySize=auto;html=1;exitX=0.5;exitY=1;exitDx=0;exitDy=0;entryX=0;entryY=0.5;entryDx=0;entryDy=0;" parent="1" source="ehtnHAh_IuBrKoUJwJ0N-55" target="ehtnHAh_IuBrKoUJwJ0N-60" edge="1">
          <mxGeometry relative="1" as="geometry" />
        </mxCell>
        <mxCell id="ehtnHAh_IuBrKoUJwJ0N-63" style="edgeStyle=orthogonalEdgeStyle;rounded=0;orthogonalLoop=1;jettySize=auto;html=1;exitX=0.5;exitY=1;exitDx=0;exitDy=0;entryX=0;entryY=0.5;entryDx=0;entryDy=0;" parent="1" source="ehtnHAh_IuBrKoUJwJ0N-55" target="ehtnHAh_IuBrKoUJwJ0N-62" edge="1">
          <mxGeometry relative="1" as="geometry" />
        </mxCell>
        <mxCell id="XQKUzzETY4X2MKT6hHlK-1" style="edgeStyle=orthogonalEdgeStyle;rounded=0;orthogonalLoop=1;jettySize=auto;html=1;exitX=0.5;exitY=1;exitDx=0;exitDy=0;" edge="1" parent="1" source="ehtnHAh_IuBrKoUJwJ0N-55">
          <mxGeometry relative="1" as="geometry">
            <mxPoint x="75" y="470" as="targetPoint" />
          </mxGeometry>
        </mxCell>
        <mxCell id="ehtnHAh_IuBrKoUJwJ0N-55" value="оператор выбора&amp;nbsp;" style="rhombus;whiteSpace=wrap;html=1;" parent="1" vertex="1">
          <mxGeometry x="20" y="230" width="110" height="50" as="geometry" />
        </mxCell>
        <mxCell id="ehtnHAh_IuBrKoUJwJ0N-67" style="edgeStyle=orthogonalEdgeStyle;rounded=0;orthogonalLoop=1;jettySize=auto;html=1;exitX=1;exitY=0.5;exitDx=0;exitDy=0;" parent="1" source="ehtnHAh_IuBrKoUJwJ0N-60" target="ehtnHAh_IuBrKoUJwJ0N-66" edge="1">
          <mxGeometry relative="1" as="geometry">
            <Array as="points">
              <mxPoint x="250" y="325" />
              <mxPoint x="250" y="440" />
              <mxPoint x="75" y="440" />
            </Array>
          </mxGeometry>
        </mxCell>
        <mxCell id="ehtnHAh_IuBrKoUJwJ0N-60" value="S =&amp;nbsp;Fdop(b)-Fdop(a)" style="shape=process;whiteSpace=wrap;html=1;backgroundOutline=1;" parent="1" vertex="1">
          <mxGeometry x="120" y="300" width="110" height="50" as="geometry" />
        </mxCell>
        <mxCell id="ehtnHAh_IuBrKoUJwJ0N-68" style="edgeStyle=orthogonalEdgeStyle;rounded=0;orthogonalLoop=1;jettySize=auto;html=1;exitX=1;exitY=0.5;exitDx=0;exitDy=0;" parent="1" source="ehtnHAh_IuBrKoUJwJ0N-62" edge="1">
          <mxGeometry relative="1" as="geometry">
            <mxPoint x="250" y="395" as="targetPoint" />
          </mxGeometry>
        </mxCell>
        <mxCell id="ehtnHAh_IuBrKoUJwJ0N-62" value="metod_pramoyg" style="shape=process;whiteSpace=wrap;html=1;backgroundOutline=1;" parent="1" vertex="1">
          <mxGeometry x="120" y="370" width="110" height="50" as="geometry" />
        </mxCell>
        <mxCell id="ehtnHAh_IuBrKoUJwJ0N-64" value="1" style="text;html=1;strokeColor=none;fillColor=none;align=center;verticalAlign=middle;whiteSpace=wrap;rounded=0;" parent="1" vertex="1">
          <mxGeometry x="60" y="300" width="60" height="30" as="geometry" />
        </mxCell>
        <mxCell id="ehtnHAh_IuBrKoUJwJ0N-65" value="2" style="text;html=1;strokeColor=none;fillColor=none;align=center;verticalAlign=middle;whiteSpace=wrap;rounded=0;" parent="1" vertex="1">
          <mxGeometry x="60" y="370" width="60" height="30" as="geometry" />
        </mxCell>
        <mxCell id="ehtnHAh_IuBrKoUJwJ0N-66" value="конец" style="rounded=1;whiteSpace=wrap;html=1;arcSize=50;" parent="1" vertex="1">
          <mxGeometry x="25" y="470" width="100" height="50" as="geometry" />
        </mxCell>
      </root>
    </mxGraphModel>
  </diagram>
</mxfile>
